<svg width="24" height="24" viewBox="0 0 24 24" fill="white" xmlns="http://www.w3.org/2000/svg">
<path d="M12 3.875C14.3629 3.875 16.1771 3.87398 17.5469 3.99414C18.9021 4.11302 19.9536 4.35787 20.7002 4.94727C21.4779 5.56148 21.8129 6.45589 21.9707 7.57715C22.1267 8.68564 22.125 10.1444 22.125 12C22.125 13.8556 22.1267 15.3144 21.9707 16.4229C21.8129 17.5441 21.4779 18.4385 20.7002 19.0527C19.9536 19.6421 18.9021 19.887 17.5469 20.0059C16.1771 20.126 14.3629 20.125 12 20.125C9.6371 20.125 7.82294 20.126 6.45312 20.0059C5.09793 19.887 4.04637 19.6421 3.2998 19.0527C2.52208 18.4385 2.1871 17.5441 2.0293 16.4229C1.87332 15.3144 1.875 13.8556 1.875 12C1.875 10.1444 1.87331 8.68564 2.0293 7.57715C2.1871 6.45589 2.52208 5.56149 3.2998 4.94727C4.04637 4.35787 5.09793 4.11302 6.45312 3.99414C7.82294 3.87398 9.6371 3.875 12 3.875ZM12 5.125C11.1258 5.125 10.3373 5.12703 9.625 5.13281V18.8662C10.3373 18.872 11.1258 18.875 12 18.875C14.3871 18.875 16.1354 18.874 17.4375 18.7598C18.7538 18.6443 19.4838 18.4202 19.9248 18.0723C20.3343 17.749 20.5934 17.2368 20.7324 16.249C20.8733 15.2482 20.875 13.8942 20.875 12C20.875 10.1058 20.8733 8.75183 20.7324 7.75098C20.5934 6.7632 20.3343 6.25098 19.9248 5.92773C19.4838 5.57982 18.7538 5.3557 17.4375 5.24023C16.1354 5.12602 14.3871 5.125 12 5.125ZM8.375 5.14941C7.68926 5.16599 7.08935 5.19402 6.5625 5.24023C5.24625 5.3557 4.51616 5.57982 4.0752 5.92773C3.66575 6.25098 3.40663 6.76321 3.26758 7.75098C3.12672 8.75183 3.125 10.1058 3.125 12C3.125 13.8942 3.12672 15.2482 3.26758 16.249C3.40663 17.2368 3.66575 17.749 4.0752 18.0723C4.51616 18.4202 5.24624 18.6443 6.5625 18.7598C7.08934 18.806 7.68927 18.833 8.375 18.8496V5.14941Z"/>
</svg>